<svg width="373" height="30" viewBox="0 0 373 30" fill="none" xmlns="http://www.w3.org/2000/svg">
<path d="M0.994141 14.5903H112.363" stroke="white" stroke-width="1.11369" stroke-linejoin="bevel"/>
<path d="M138.078 6.32276C140.185 6.32276 141.802 6.99246 142.929 8.33185C144.056 9.65491 144.62 11.5497 144.62 14.0161C144.62 16.6786 144.023 18.7203 142.831 20.1414C141.639 21.5625 139.94 22.273 137.735 22.273C135.66 22.273 134.06 21.5951 132.933 20.2394C131.806 18.8673 131.242 16.9154 131.242 14.3836C131.242 11.8028 131.83 9.81825 133.006 8.42986C134.198 7.02513 135.889 6.32276 138.078 6.32276ZM138.004 7.40081C136.208 7.40081 134.844 7.98067 133.913 9.14039C132.982 10.3001 132.516 12.007 132.516 14.2611C132.516 16.5642 132.965 18.3038 133.864 19.4799C134.762 20.6559 136.085 21.2439 137.833 21.2439C139.63 21.2439 140.993 20.6477 141.925 19.4554C142.856 18.263 143.321 16.5152 143.321 14.2121C143.321 11.958 142.872 10.2593 141.974 9.11589C141.075 7.9725 139.752 7.40081 138.004 7.40081ZM155.544 21.1704L155.397 22.126H148.071L148.144 17.3728L148.071 6.46977H149.369L149.296 17.2993L149.345 21.0234H155.421L155.544 21.1704ZM161.162 17.4463L161.211 22.126H159.937L159.986 17.4463L159.961 16.3437L155.012 6.46977H156.433L156.727 7.2293L160.549 14.8246H160.696L164.862 7.2538L165.18 6.46977H166.577L161.186 16.2947L161.162 17.4463ZM184.627 22.126H183.451L183.034 17.3483L182.079 8.67487H181.932L177.154 20.2394H176.003L171.396 8.67487H171.249L170.294 17.2748L169.828 22.126H168.701L170.392 6.46977H171.837L172.72 8.87088L176.566 18.5488H176.689L180.756 8.67487L181.589 6.46977H183.034L184.627 22.126ZM192.937 6.44527C194.423 6.44527 195.567 6.83729 196.367 7.62132C197.167 8.38902 197.567 9.49157 197.567 10.929C197.567 12.6277 197.077 13.9589 196.097 14.9227C195.134 15.87 193.77 16.3437 192.006 16.3437H189.997V17.2993L190.046 22.126H188.772L188.845 17.3728L188.772 6.46977L192.937 6.44527ZM192.741 15.2657C193.884 15.1187 194.758 14.6776 195.362 13.9426C195.967 13.2076 196.269 12.2357 196.269 11.027C196.269 9.89993 195.967 9.04239 195.362 8.45436C194.774 7.86633 193.917 7.55599 192.79 7.52332L190.07 7.57232L190.021 15.2167L192.741 15.2657ZM202.319 17.2993L202.368 22.126H201.094L201.167 17.3728L201.094 6.46977H202.392L202.319 17.2993ZM218.144 22.126H216.821L216.478 20.8029L215.302 17.4218L211.578 17.3728L208.221 17.4218L206.947 20.7539L206.579 22.126H205.256L211.234 6.46977H212.68L218.144 22.126ZM214.91 16.2947L211.994 7.93984H211.847L208.662 16.2947L211.725 16.3192L214.91 16.2947ZM221.706 20.5089C222.359 20.9009 222.686 21.3828 222.686 21.9545C222.686 22.8202 222.024 23.7512 220.701 24.7476L220.236 24.3066V24.1841C221.134 23.5144 221.583 22.8365 221.583 22.1505C221.583 21.7585 221.33 21.4236 220.824 21.1459V20.9989C221.085 20.7866 221.379 20.6232 221.706 20.5089ZM244.28 22.126H242.981L239.551 12.252H239.429L235.753 22.126H234.455L229.163 6.46977H230.461L230.755 7.76833L235.116 20.5824H235.239L238.988 10.488L237.591 6.46977H238.914L239.257 7.86633L243.618 20.5824H243.765L248.543 7.81733L248.886 6.46977H250.136L244.28 22.126ZM263.27 22.126H261.947L261.604 20.8029L260.428 17.4218L256.704 17.3728L253.347 17.4218L252.073 20.7539L251.705 22.126H250.382L256.361 6.46977H257.806L263.27 22.126ZM260.036 16.2947L257.12 7.93984H256.973L253.788 16.2947L256.851 16.3192L260.036 16.2947ZM270.189 6.37177C271.267 6.37177 272.353 6.61678 273.447 7.1068L273.227 8.28285L272.982 8.35636C272.524 8.06234 272.034 7.84183 271.512 7.69482C271.005 7.53148 270.515 7.44981 270.042 7.44981C269.356 7.44981 268.751 7.59682 268.228 7.89083C267.722 8.16851 267.33 8.53603 267.052 8.99338C266.791 9.45074 266.66 9.91626 266.66 10.3899C266.66 10.8963 266.807 11.3373 267.101 11.713C267.395 12.0887 267.755 12.4154 268.179 12.6931C268.62 12.9544 269.209 13.2566 269.944 13.5996C270.809 14.0243 271.503 14.4081 272.026 14.7511C272.565 15.0778 273.023 15.5107 273.398 16.0497C273.774 16.5724 273.962 17.2094 273.962 17.9608C273.962 18.7285 273.749 19.4472 273.325 20.1169C272.916 20.7702 272.328 21.2929 271.561 21.685C270.809 22.0606 269.96 22.2485 269.013 22.2485C268.343 22.2485 267.657 22.1586 266.954 21.979C266.252 21.783 265.615 21.5053 265.043 21.1459L265.19 19.8474L265.362 19.7739C265.901 20.2476 266.505 20.6069 267.175 20.8519C267.845 21.0806 268.49 21.1949 269.111 21.1949C269.829 21.1949 270.458 21.0479 270.997 20.7539C271.536 20.4599 271.953 20.0761 272.247 19.6024C272.541 19.1287 272.688 18.6305 272.688 18.1078C272.688 17.5688 272.532 17.1032 272.222 16.7112C271.928 16.3029 271.561 15.968 271.12 15.7067C270.695 15.4453 270.099 15.1268 269.331 14.7511C268.482 14.3428 267.796 13.9753 267.273 13.6486C266.75 13.3219 266.309 12.8972 265.95 12.3745C265.591 11.8518 265.411 11.223 265.411 10.488C265.411 9.73658 265.607 9.05055 265.999 8.42986C266.407 7.79283 266.971 7.29464 267.689 6.93529C268.424 6.55961 269.258 6.37177 270.189 6.37177ZM289.201 17.2993L289.226 22.126H287.976L288.025 17.3728V14.7511H278.837V17.2993L278.886 22.126H277.612L277.661 17.3728L277.612 6.46977H278.886L278.862 13.6486H288L287.976 6.46977H289.25L289.201 17.2993ZM295.418 17.2993L295.467 22.126H294.193L294.267 17.3728L294.193 6.46977H295.492L295.418 17.2993ZM312.003 17.6668V22.126H310.704L301.737 8.60137H301.614L301.59 17.1032L301.614 22.126H300.438L300.487 17.4708L300.463 6.46977H301.786L310.729 19.9944H310.851L310.876 6.54327L312.076 6.44527L312.003 17.6668ZM322.568 6.34726C324.104 6.34726 325.606 6.75562 327.076 7.57232L326.782 8.74837L326.586 8.77287C325.116 7.89083 323.728 7.44981 322.421 7.44981C320.461 7.44981 318.967 8.04601 317.938 9.2384C316.925 10.4144 316.418 12.1622 316.418 14.4816C316.418 16.7031 316.876 18.3691 317.791 19.4799C318.705 20.5906 320.061 21.1459 321.858 21.1459C322.478 21.1459 323.058 21.1051 323.597 21.0234C324.153 20.9254 324.863 20.7539 325.729 20.5089L325.753 18.2303L325.729 15.9762L326.954 15.8782L326.929 18.0833L326.978 21.3909C325.884 21.7013 324.953 21.9218 324.185 22.0525C323.434 22.1831 322.65 22.2566 321.833 22.273C319.628 22.273 317.954 21.6033 316.811 20.2639C315.683 18.9245 315.12 17.0134 315.12 14.5306C315.12 11.9008 315.765 9.88359 317.056 8.47886C318.346 7.0578 320.184 6.34726 322.568 6.34726ZM340.051 6.61678L339.929 7.59682L337.307 7.52332H335.396L335.323 17.2993L335.372 22.126H334.098L334.171 17.3728L334.098 7.52332H332.186L329.516 7.59682L329.418 7.44981L329.54 6.46977H339.929L340.051 6.61678ZM347.438 6.32276C349.545 6.32276 351.162 6.99246 352.289 8.33185C353.416 9.65491 353.98 11.5497 353.98 14.0161C353.98 16.6786 353.383 18.7203 352.191 20.1414C350.999 21.5625 349.3 22.273 347.095 22.273C345.02 22.273 343.42 21.5951 342.293 20.2394C341.166 18.8673 340.602 16.9154 340.602 14.3836C340.602 11.8028 341.19 9.81825 342.366 8.42986C343.559 7.02513 345.249 6.32276 347.438 6.32276ZM347.364 7.40081C345.568 7.40081 344.204 7.98067 343.273 9.14039C342.342 10.3001 341.876 12.007 341.876 14.2611C341.876 16.5642 342.325 18.3038 343.224 19.4799C344.122 20.6559 345.445 21.2439 347.193 21.2439C348.99 21.2439 350.353 20.6477 351.285 19.4554C352.216 18.263 352.681 16.5152 352.681 14.2121C352.681 11.958 352.232 10.2593 351.334 9.11589C350.435 7.9725 349.112 7.40081 347.364 7.40081ZM369.044 17.6668V22.126H367.746L358.778 8.60137H358.656L358.631 17.1032L358.656 22.126H357.48L357.529 17.4708L357.504 6.46977H358.827L367.77 19.9944H367.893L367.917 6.54327L369.118 6.44527L369.044 17.6668Z" fill="white"/>
</svg>
