
<svg xmlns="http://www.w3.org/2000/svg" xmlns:xlink="http://www.w3.org/1999/xlink" viewBox="0 0 64 64" width="64px" height="64px">
<g id="surface85056351">
<path style=" stroke:none;fill-rule:nonzero;fill:rgb(29.019609%,27.058825%,23.921569%);fill-opacity:1;" d="M 32 5 C 22.101562 5 14 13.101562 14 23 C 14 27.5 15.699219 31.601562 18.398438 34.800781 L 22.789062 39.542969 C 12.472656 40.691406 4 43.898438 4 49 C 4 55.601562 18.101562 59 32 59 C 45.898438 59 60 55.601562 60 49 C 60 44.699219 53.902344 41.699219 45.800781 40.199219 L 43.101562 43.800781 C 51.300781 45.101562 56 47.5 56 49 C 56 51.101562 46.898438 55 32 55 C 17.101562 55 8 51.101562 8 49 C 8 47.148438 14.792969 44.011719 26.207031 43.242188 L 32 49.5 L 45.601562 34.699219 C 48.300781 31.597656 50 27.5 50 23 C 50 13.101562 41.898438 5 32 5 Z M 32 17 C 35.300781 17 38 19.699219 38 23 C 38 26.300781 35.300781 29 32 29 C 28.699219 29 26 26.300781 26 23 C 26 19.699219 28.699219 17 32 17 Z M 32 17 "/>
</g>
</svg>
