<svg width="24" height="21" viewBox="0 0 24 21" fill="none" xmlns="http://www.w3.org/2000/svg">
<path d="M11.2209 3.60297L12.0582 5.22277C12.423 5.92861 12.2208 6.75868 11.5575 7.27478L9.993 8.49232C9.81668 8.62974 9.72511 8.82906 9.76456 9.0256C9.91555 9.77698 10.2502 10.518 10.7684 11.249C11.2857 11.9784 11.9155 12.5991 12.6582 13.1108C12.855 13.2463 13.1283 13.2814 13.3718 13.2147L15.1968 12.7154C16.037 12.4857 16.9517 12.7497 17.4671 13.3705L18.6677 14.8169C19.2668 15.5387 19.1591 16.5342 18.4159 17.1461L17.619 17.8021C16.8261 18.4548 15.6937 18.6916 14.646 18.4236C12.1726 17.7909 9.89899 15.9126 7.82408 12.7885C5.74624 9.65993 5.0132 7.00515 5.62447 4.82491C5.88165 3.90736 6.678 3.17675 7.7179 2.90433L8.76656 2.6295C9.75044 2.37265 10.8001 2.78888 11.2209 3.60297Z" fill="#4A453D"/>
</svg>
