<svg width="288" height="40" viewBox="0 0 288 40" fill="none" xmlns="http://www.w3.org/2000/svg">
<path d="M52.1586 8.19568C53.8609 8.19568 55.5631 8.55404 57.2654 9.27077L56.6942 12.4289L56.1567 12.6305C55.4399 12.1153 54.7008 11.7121 53.9393 11.421C53.1778 11.1298 52.4498 10.9842 51.7555 10.9842C50.658 10.9842 49.7845 11.2866 49.1349 11.8913C48.4854 12.4961 48.1606 13.2016 48.1606 14.0079C48.1606 14.7918 48.4854 15.4414 49.1349 15.9565C49.7845 16.4493 50.8036 17.0204 52.1922 17.67C53.4017 18.2523 54.376 18.7787 55.1152 19.249C55.8767 19.7194 56.5262 20.3465 57.0638 21.1304C57.6013 21.892 57.8701 22.8103 57.8701 23.8854C57.8701 25.0501 57.5453 26.1252 56.8958 27.1107C56.2687 28.0738 55.3727 28.8465 54.2081 29.4289C53.0658 29.9888 51.7555 30.2688 50.2772 30.2688C49.2917 30.2688 48.2726 30.1456 47.2199 29.8992C46.1672 29.6528 45.1705 29.2945 44.2298 28.8241L44.6666 25.3972L45.1033 25.1957C45.932 25.9796 46.8392 26.5731 47.8247 26.9763C48.8326 27.3571 49.7621 27.5474 50.6132 27.5474C51.7779 27.5474 52.7074 27.2451 53.4017 26.6403C54.0961 26.0132 54.4432 25.2741 54.4432 24.4229C54.4432 23.5718 54.1073 22.8887 53.4353 22.3735C52.7634 21.836 51.7331 21.2424 50.3444 20.5929C49.1573 20.0329 48.1942 19.529 47.4551 19.081C46.716 18.6107 46.0776 17.9947 45.5401 17.2332C45.0249 16.4717 44.7674 15.5534 44.7674 14.4783C44.7674 13.3136 45.0809 12.2497 45.7081 11.2866C46.3352 10.3235 47.2087 9.57315 48.3286 9.0356C49.4485 8.47565 50.7252 8.19568 52.1586 8.19568ZM75.3874 21.7352L75.3538 24.2214C75.3762 26.1252 74.7715 27.6034 73.5396 28.6561C72.3077 29.7088 70.5607 30.2352 68.2985 30.2352C66.0587 30.2352 64.3565 29.72 63.1918 28.6897C62.0271 27.637 61.4671 26.1476 61.5119 24.2214L61.5455 21.6344L61.4447 13.168H64.7036L64.5357 23.7174C64.5133 26.2708 65.8123 27.5474 68.4329 27.5474C69.732 27.5474 70.7175 27.2339 71.3894 26.6067C72.0613 25.9572 72.3861 24.9941 72.3637 23.7174L72.2293 13.168H75.4882L75.3874 21.7352ZM94.9326 24.8597L95.0334 30H91.5393L83.5769 18.1739H83.3753L83.3417 24.2885L83.4425 30H80.5196L80.654 25.0613L80.5532 13.168H83.9801L91.9425 24.9941H92.2113L92.1105 13.2688L95.1006 13.1008L94.9326 24.8597ZM107.832 12.9664C109.579 12.9664 111.348 13.3136 113.14 14.0079L112.166 17.0652H111.83C110.979 16.5501 110.206 16.1805 109.512 15.9565C108.84 15.7326 108.089 15.6206 107.261 15.6206C105.514 15.6206 104.226 16.1133 103.397 17.0988C102.568 18.0619 102.154 19.6298 102.154 21.8024C102.154 23.9078 102.546 25.4084 103.33 26.3044C104.114 27.1779 105.402 27.6146 107.193 27.6146C107.664 27.6146 108.112 27.5698 108.537 27.4802C108.963 27.3906 109.489 27.2339 110.116 27.0099V25.5988L110.083 23.0791L113.039 22.8775L113.006 25.0949V29.1937C110.721 29.888 108.728 30.2352 107.025 30.2352C104.293 30.2352 102.232 29.5184 100.844 28.085C99.4549 26.6515 98.7606 24.6021 98.7606 21.9368C98.7606 19.0474 99.5445 16.8301 101.112 15.2846C102.703 13.7391 104.942 12.9664 107.832 12.9664ZM126.493 23.2806C127.792 25.2293 129.259 27.2115 130.894 29.2273L130.86 29.6304C129.696 29.9664 128.676 30.168 127.803 30.2352L127.299 29.9328C125.664 27.2899 124.51 25.3636 123.838 24.1542L120.882 24.1878V24.6581L121.016 30H117.791L117.925 24.9605L117.791 13.168L124.174 13.1344C125.989 13.1344 127.389 13.5712 128.374 14.4447C129.382 15.2958 129.886 16.5053 129.886 18.0731C129.886 19.1706 129.584 20.1673 128.979 21.0633C128.396 21.9592 127.568 22.6983 126.493 23.2806ZM120.916 21.6008L123.838 21.7016C125.608 21.1864 126.493 20.0777 126.493 18.3755C126.493 17.4572 126.224 16.7853 125.686 16.3597C125.149 15.9117 124.331 15.6654 123.234 15.6206L121.016 15.6878L120.916 21.6008ZM141.411 12.9328C143.875 12.9328 145.779 13.6608 147.123 15.1166C148.489 16.5501 149.172 18.5771 149.172 21.1976C149.172 24.1094 148.444 26.3491 146.988 27.917C145.555 29.4848 143.505 30.2688 140.84 30.2688C138.354 30.2688 136.439 29.5296 135.095 28.0514C133.751 26.5731 133.079 24.4789 133.079 21.7688C133.079 18.9467 133.796 16.7741 135.229 15.251C136.685 13.7056 138.746 12.9328 141.411 12.9328ZM141.109 15.587C139.496 15.587 138.309 16.0461 137.548 16.9644C136.808 17.8604 136.439 19.3274 136.439 21.3656C136.439 23.6278 136.808 25.2405 137.548 26.2036C138.287 27.1667 139.463 27.6482 141.075 27.6482C142.71 27.6482 143.909 27.2003 144.67 26.3044C145.432 25.386 145.812 23.8966 145.812 21.836C145.812 19.5962 145.443 17.9947 144.704 17.0316C143.965 16.0685 142.766 15.587 141.109 15.587ZM169.788 30H166.327L163.404 21.668H163.169L160.145 30H156.685L151.477 13.168H154.736L155.039 15.1838L158.533 26.5395H158.768L162.06 17.3004L160.784 13.168H164.11L164.513 15.4862L168.074 26.5395H168.343L172.274 15.3518L172.744 13.168H175.801L169.788 30ZM193.59 24.8597L193.691 30H190.197L182.235 18.1739H182.033L182 24.2885L182.1 30H179.177L179.312 25.0613L179.211 13.168H182.638L190.6 24.9941H190.869L190.768 13.2688L193.758 13.1008L193.59 24.8597ZM208.332 11.2866L208.231 18.0731L211.624 18.1403L215.185 18.0395L215.42 18.3419L215.152 20.9625L211.322 20.8617L208.197 20.8953L208.164 23.2134L208.332 30H204.804L205.039 23.5158L204.804 8.43086H216.865L217.1 8.73323L216.832 11.4546L211.792 11.253L208.332 11.2866ZM232.386 30H229.127L228.69 27.917L228.085 26.0692L224.323 26.0356L220.963 26.0692L220.325 27.749L219.854 30H216.662L222.945 13.168H226.708L232.386 30ZM227.245 23.5494L224.86 16.1917H224.625L221.904 23.5494L224.558 23.583L227.245 23.5494ZM244.869 23.2806C246.168 25.2293 247.635 27.2115 249.27 29.2273L249.236 29.6304C248.072 29.9664 247.053 30.168 246.179 30.2352L245.675 29.9328C244.04 27.2899 242.887 25.3636 242.215 24.1542L239.258 24.1878V24.6581L239.393 30H236.167L236.302 24.9605L236.167 13.168L242.551 13.1344C244.365 13.1344 245.765 13.5712 246.75 14.4447C247.758 15.2958 248.262 16.5053 248.262 18.0731C248.262 19.1706 247.96 20.1673 247.355 21.0633C246.773 21.9592 245.944 22.6983 244.869 23.2806ZM239.292 21.6008L242.215 21.7016C243.984 21.1864 244.869 20.0777 244.869 18.3755C244.869 17.4572 244.6 16.7853 244.063 16.3597C243.525 15.9117 242.707 15.6654 241.61 15.6206L239.393 15.6878L239.292 21.6008ZM271.538 30H268.683L268.347 24.8933L267.574 18.0395H267.372L263.005 28.2194H260.485L256.453 18.0395H256.185L255.446 24.5909L255.009 30H252.287L254.102 13.168H257.864L258.637 15.6542L261.795 23.9526H262.031L265.39 15.6206L266.23 13.168H269.892L271.538 30ZM281.604 12.9664C283.037 12.9664 284.471 13.2464 285.904 13.8063L285.4 16.8637L284.896 16.9644C283.597 15.9341 282.365 15.419 281.201 15.419C280.372 15.419 279.711 15.6318 279.218 16.0573C278.748 16.4829 278.513 16.9756 278.513 17.5356C278.513 18.0955 278.759 18.5659 279.252 18.9467C279.767 19.305 280.562 19.7082 281.637 20.1561C282.645 20.5817 283.452 20.9849 284.056 21.3656C284.683 21.724 285.221 22.2055 285.669 22.8103C286.117 23.415 286.341 24.1654 286.341 25.0613C286.341 25.9796 286.095 26.8307 285.602 27.6146C285.131 28.3986 284.415 29.0369 283.452 29.5296C282.511 30 281.369 30.2352 280.025 30.2352C279.218 30.2352 278.367 30.1456 277.471 29.9664C276.575 29.7872 275.713 29.5184 274.884 29.1601L275.321 25.9012L275.691 25.6996C276.34 26.3491 277.102 26.8643 277.975 27.2451C278.871 27.6034 279.689 27.7826 280.428 27.7826C281.234 27.7826 281.884 27.581 282.377 27.1779C282.892 26.7523 283.149 26.2372 283.149 25.6324C283.149 25.0277 282.892 24.5461 282.377 24.1878C281.861 23.807 281.066 23.3926 279.991 22.9447C279.028 22.5191 278.233 22.1271 277.606 21.7688C276.979 21.388 276.441 20.8953 275.993 20.2905C275.568 19.6634 275.355 18.9019 275.355 18.0059C275.355 17.0652 275.601 16.2141 276.094 15.4526C276.609 14.6911 277.337 14.0863 278.278 13.6384C279.241 13.1904 280.349 12.9664 281.604 12.9664Z" fill="white" />
<path fill-rule="evenodd" clip-rule="evenodd" d="M16.2926 36.2882C25.2908 36.2882 32.5853 28.9937 32.5853 19.9955C32.5853 10.9973 25.2908 3.70288 16.2926 3.70288C7.29446 3.70288 0 10.9973 0 19.9955C0 28.9937 7.29446 36.2882 16.2926 36.2882ZM22.2195 23.9405C25.3221 23.9405 27.804 25.4305 27.9081 25.4937C28.0552 25.5834 28.1449 25.7434 28.1449 25.9156C28.1449 26.0877 28.0552 26.2478 27.9081 26.3375C27.804 26.4007 25.3221 27.8907 22.2195 27.8907C21.5379 27.8907 20.8622 27.7905 20.2187 27.6388C21.2703 28.8734 21.2348 30.3097 21.2315 30.3808C21.2247 30.5327 21.1486 30.6735 21.0246 30.7618C20.9402 30.822 20.8399 30.8534 20.7382 30.8534C20.6909 30.8534 20.6437 30.8466 20.5974 30.8331C20.5231 30.811 18.7563 30.2723 17.4023 28.7076C17.1596 28.4271 16.9638 28.1491 16.788 27.8762V31.3472C16.788 31.6201 16.5671 31.841 16.2942 31.841C16.0212 31.841 15.8004 31.6201 15.8004 31.3472V27.8762C15.6245 28.1491 15.4288 28.4271 15.1861 28.7076C13.832 30.2723 12.0652 30.811 11.991 30.8331C11.9447 30.8466 11.8974 30.8534 11.8502 30.8534C11.7484 30.8534 11.6481 30.822 11.5637 30.7618C11.4398 30.6735 11.3636 30.5327 11.3569 30.3808C11.3536 30.3098 11.3185 28.8772 12.366 27.6435C11.726 27.7925 11.0523 27.8907 10.3688 27.8907C7.3044 27.8907 4.78872 26.4021 4.68312 26.339C4.53508 26.2502 4.44394 26.0902 4.44346 25.917C4.44298 25.7444 4.53267 25.5838 4.68023 25.4937C4.78438 25.4305 7.2663 23.9405 10.3688 23.9405C10.6883 23.9405 11.0053 23.9531 11.3189 23.9724C10.5909 23.5771 9.85738 23.1193 9.17873 22.5893C5.90166 20.0307 4.52447 15.8741 4.46757 15.6986C4.41501 15.5361 4.44973 15.3577 4.56016 15.227C4.67155 15.0973 4.84177 15.037 5.01006 15.0577C5.15182 15.079 8.51184 15.607 11.5874 18.4023C12.4185 19.1579 13.1709 19.997 13.8321 20.8214C13.5389 19.6776 13.3315 18.3947 13.3315 17.0276C13.3315 12.2986 15.7773 8.52046 15.8814 8.3623C16.0637 8.08454 16.5247 8.08454 16.7069 8.3623C16.8111 8.52046 19.2569 12.2986 19.2569 17.0276C19.2569 18.3947 19.0494 19.6776 18.7563 20.8214C19.4174 19.997 20.1699 19.1579 21.001 18.4023C24.0765 15.607 27.4365 15.079 27.5783 15.0577C27.7495 15.037 27.9173 15.0973 28.0282 15.227C28.1386 15.3577 28.1733 15.5361 28.1208 15.6986C28.0639 15.8741 26.6867 20.0307 23.4096 22.5893C22.731 23.1193 21.9975 23.5771 21.2695 23.9724C21.583 23.9531 21.9001 23.9405 22.2195 23.9405ZM26.8507 16.2425C25.7025 16.5728 23.6049 17.3699 21.6655 19.1334C19.7024 20.918 18.1459 23.2538 17.3391 24.5895C18.6985 24.1329 20.9914 23.2249 22.802 21.811C24.9884 20.104 26.2879 17.5551 26.8507 16.2425ZM16.2942 9.62182C15.6109 10.903 14.3191 13.7567 14.3191 17.0276C14.3191 20.1721 15.5081 22.9161 16.2074 24.2629C16.2173 24.2797 16.2275 24.2968 16.2376 24.3138C16.2571 24.3467 16.2765 24.3794 16.2942 24.4097C16.3118 24.3794 16.3313 24.3467 16.3508 24.3138C16.3609 24.2968 16.371 24.2797 16.381 24.2629C17.0803 22.9161 18.2693 20.1721 18.2693 17.0276C18.2693 13.7567 16.9775 10.903 16.2942 9.62182ZM10.9229 19.1334C8.98392 17.3704 6.88681 16.5733 5.73867 16.243C6.30285 17.557 7.60481 20.1079 9.78631 21.811C11.597 23.2244 13.8894 24.1324 15.2488 24.589C14.4411 23.2528 12.8835 20.9156 10.9229 19.1334ZM10.3688 24.928C8.56103 24.928 6.9601 25.498 6.03378 25.9127C6.96926 26.3288 8.58466 26.9032 10.3688 26.9032C12.1713 26.9032 13.9728 26.134 15.0409 25.5771C13.942 25.296 12.1593 24.928 10.3688 24.928ZM12.4447 29.578C13.0036 29.3002 13.7848 28.8175 14.4396 28.0614C14.9088 27.5189 15.2213 26.9769 15.4272 26.5217C14.97 26.8212 14.3692 27.2359 13.6276 27.7919C12.8961 28.3406 12.5802 29.0485 12.4447 29.578ZM17.1646 26.5241C17.3709 26.9808 17.6829 27.5233 18.1487 28.0614C18.8084 28.8233 19.5886 29.305 20.146 29.5813C20.0115 29.0514 19.6961 28.3435 18.9608 27.7919C18.2211 27.2373 17.6217 26.8231 17.1646 26.5241ZM17.5537 25.5747C18.6305 26.1326 20.4407 26.9032 22.2195 26.9032C24.0302 26.9032 25.6336 26.3313 26.5594 25.9161C25.6316 25.5009 24.0244 24.928 22.2195 24.928C20.4296 24.928 18.6522 25.2945 17.5537 25.5747Z" fill="white" />
</svg>
