<svg width="512" height="512" viewBox="0 0 512 512" fill="none" xmlns="http://www.w3.org/2000/svg">
<path fill-rule="evenodd" clip-rule="evenodd" d="M478.063 128H477.752C499.534 165.654 512 209.371 512 256C512 302.629 499.534 346.346 477.752 384H478.063C433.8 460.519 351.068 512 256.312 512C161.555 512 78.8234 460.519 34.5598 384H34.2482C12.4665 346.346 0 302.629 0 256C0 209.371 12.4665 165.654 34.2482 128H34.5598C78.8234 51.4814 161.555 0 256.312 0C351.068 0 433.8 51.4814 478.063 128ZM348.342 317.191C397.091 317.191 436.088 340.603 437.725 341.596C440.036 343.005 441.445 345.521 441.445 348.226C441.445 350.931 440.036 353.446 437.725 354.855C436.088 355.848 397.091 379.26 348.342 379.26C337.632 379.26 327.015 377.686 316.904 375.301C333.427 394.701 332.869 417.269 332.818 418.386C332.711 420.773 331.514 422.985 329.567 424.372C328.241 425.319 326.665 425.811 325.067 425.811C324.324 425.811 323.582 425.705 322.854 425.493C321.687 425.145 293.926 416.681 272.651 392.095C268.837 387.688 265.762 383.32 262.998 379.033V433.57C262.998 437.858 259.528 441.329 255.239 441.329C250.951 441.329 247.481 437.858 247.481 433.57V379.033C244.717 383.32 241.642 387.688 237.828 392.095C216.553 416.681 188.791 425.145 187.625 425.493C186.897 425.705 186.155 425.811 185.412 425.811C183.814 425.811 182.238 425.319 180.912 424.372C178.964 422.985 177.767 420.773 177.661 418.386C177.61 417.27 177.059 394.76 193.517 375.375C183.461 377.717 172.877 379.26 162.137 379.26C113.986 379.26 74.4586 355.871 72.7993 354.878C70.4732 353.484 69.0412 350.968 69.0336 348.248C69.0261 345.536 70.4353 343.013 72.7538 341.596C74.3904 340.603 113.388 317.191 162.137 317.191C167.156 317.191 172.138 317.39 177.065 317.692C165.626 311.481 154.1 304.288 143.437 295.961C91.9457 255.759 70.3065 190.448 69.4125 187.69C68.5866 185.137 69.1321 182.333 70.8672 180.28C72.6174 178.242 75.292 177.295 77.9363 177.62C80.1639 177.954 132.959 186.25 181.283 230.173C194.342 242.045 206.165 255.23 216.554 268.182C211.947 250.211 208.688 230.053 208.688 208.571C208.688 134.266 247.117 74.9027 248.754 72.4175C251.618 68.0533 258.861 68.0533 261.725 72.4175C263.362 74.9027 301.791 134.266 301.791 208.571C301.791 230.053 298.532 250.211 293.925 268.182C304.314 255.23 316.136 242.045 329.196 230.173C377.52 186.25 430.315 177.954 432.542 177.62C435.232 177.295 437.869 178.242 439.612 180.28C441.347 182.333 441.892 185.137 441.066 187.69C440.172 190.448 418.533 255.759 367.042 295.961C356.378 304.288 344.853 311.481 333.414 317.692C338.341 317.39 343.323 317.191 348.342 317.191ZM421.109 196.236C403.069 201.427 370.11 213.951 339.637 241.659C308.792 269.7 284.334 306.402 271.658 327.39C293.017 320.215 329.044 305.948 357.495 283.733C391.848 256.911 412.267 216.86 421.109 196.236ZM255.239 92.2079C244.503 112.339 224.205 157.178 224.205 208.571C224.205 257.981 242.887 301.096 253.876 322.257C254.032 322.522 254.192 322.792 254.352 323.06C254.658 323.576 254.962 324.088 255.239 324.564C255.516 324.089 255.82 323.577 256.126 323.062C256.286 322.793 256.446 322.523 256.603 322.257C267.591 301.096 286.274 257.981 286.274 208.571C286.274 157.178 265.976 112.339 255.239 92.2079ZM170.842 241.659C140.376 213.958 107.425 201.434 89.3847 196.244C98.2495 216.891 118.707 256.972 152.984 283.733C181.434 305.94 217.454 320.207 238.813 327.382C226.122 306.387 201.649 269.663 170.842 241.659ZM162.137 332.709C133.731 332.709 108.577 341.664 94.0217 348.18C108.721 354.719 134.103 363.743 162.137 363.743C190.458 363.743 218.765 351.658 235.547 342.907C218.28 338.49 190.269 332.709 162.137 332.709ZM194.754 405.771C203.536 401.407 215.81 393.822 226.099 381.942C233.471 373.418 238.381 364.902 241.616 357.75C234.434 362.455 224.993 368.971 213.34 377.707C201.846 386.329 196.883 397.452 194.754 405.771ZM268.915 357.788C272.158 364.963 277.06 373.487 284.379 381.942C294.744 393.913 307.004 401.483 315.762 405.824C313.648 397.497 308.693 386.375 297.139 377.707C285.516 368.993 276.098 362.485 268.915 357.788ZM275.03 342.869C291.949 351.635 320.392 363.743 348.342 363.743C376.793 363.743 401.986 354.757 416.533 348.233C401.955 341.71 376.702 332.709 348.342 332.709C320.217 332.709 292.29 338.467 275.03 342.869Z" fill="#7C7C7C"/>
</svg>
